<svg aria-hidden="true" style="position: absolute; width: 0; height: 0; overflow: hidden;" version="1.1" xmlns="http://www.w3.org/2000/svg" xmlns:xlink="http://www.w3.org/1999/xlink">
<defs>
<symbol id="icon-antenna" viewBox="0 0 16 16">
<path  d="M15.387 11.049l-4.222-4.253 0.469-2.308c0.121 0.047 0.249 0.072 0.379 0.073h0.003c0.596 0.007 1.085-0.47 1.092-1.067s-0.471-1.085-1.067-1.092c-0.596-0.007-1.085 0.47-1.092 1.067-0.002 0.128 0.020 0.254 0.062 0.375l-2.48 0.303-4.045-4.066c-0.050-0.051-0.117-0.079-0.188-0.080s-0.137 0.028-0.187 0.078l-0.756 0.752c-0.104 0.104-0.104 0.273 0 0.377l0.407 0.413c-1.577 2.899-1.064 6.489 1.26 8.831 0.021 0.020 0.046 0.037 0.073 0.049-0.017 0.090-0.026 0.182-0.026 0.274v3.093h-3.2c-0.736 0.001-1.332 0.597-1.333 1.333v0.533c0 0.147 0.119 0.267 0.267 0.267h12.267c0.147 0 0.267-0.119 0.267-0.267v-0.533c-0.001-0.736-0.597-1.332-1.333-1.333h-3.2v-1.371c0.501 0.105 1.012 0.159 1.524 0.16 1.229-0.001 2.439-0.308 3.52-0.892l0.409 0.411c0.050 0.051 0.117 0.079 0.188 0.080s0.137-0.028 0.187-0.078l0.756-0.752c0.104-0.104 0.104-0.273 0-0.377zM11.64 3.117c0.209-0.208 0.547-0.207 0.754 0.002s0.207 0.547-0.002 0.754c-0.1 0.099-0.235 0.155-0.376 0.155h-0.002c-0.295-0.002-0.532-0.242-0.531-0.536 0.001-0.141 0.057-0.276 0.157-0.375h-0.001zM11.012 4.869l-0.299 1.473-0.588-0.591 0.887-0.882zM10.709 4.418l-0.96 0.954-0.743-0.747 1.703-0.208zM12.002 14.4c0.442 0 0.8 0.358 0.8 0.8v0.267h-11.733v-0.267c0-0.442 0.358-0.8 0.8-0.8h10.133zM8.269 13.333v0.533h-2.667v-0.533h2.667zM5.602 12.8v-2.027c0-0.647 0.598-1.173 1.333-1.173s1.333 0.526 1.333 1.173v2.027h-2.667zM8.802 11.952v-1.179c0-0.941-0.837-1.707-1.867-1.707-0.666-0.010-1.288 0.329-1.641 0.893-2.029-2.137-2.486-5.323-1.139-7.944l9.301 9.354c-1.436 0.731-3.083 0.936-4.654 0.582zM14.447 11.61l-10.529-10.59 0.377-0.376 3.967 3.99c0.002 0 0.003 0.003 0.005 0.005l6.557 6.596-0.378 0.376z"></path>
<path  d="M6.938 10.133h-0.002c-0.442-0.001-0.801 0.357-0.801 0.799s0.357 0.801 0.799 0.801h0.002c0.442 0.001 0.801-0.357 0.801-0.799s-0.357-0.801-0.799-0.801zM7.124 11.122c-0.050 0.050-0.118 0.078-0.189 0.078-0.147-0.001-0.266-0.121-0.265-0.268 0-0.070 0.029-0.138 0.079-0.188s0.117-0.077 0.187-0.078c0.147 0.001 0.266 0.121 0.265 0.268-0 0.070-0.029 0.138-0.079 0.188h0.002z"></path>
</symbol>
<symbol id="icon-astronaut" viewBox="0 0 16 16">
<path fill="#2196f3" style="fill: var(--color2, #2196f3)" d="M15.987 2.262c-0.031-0.096-0.115-0.167-0.215-0.181l-0.955-0.139-0.427-0.866c-0.090-0.182-0.389-0.182-0.478 0l-0.427 0.866-0.955 0.139c-0.101 0.015-0.184 0.085-0.215 0.181s-0.005 0.203 0.067 0.273l0.691 0.674-0.163 0.951c-0.017 0.1 0.024 0.201 0.106 0.261 0.083 0.060 0.191 0.068 0.281 0.020l0.854-0.449 0.854 0.449c0.039 0.021 0.082 0.031 0.124 0.031 0.055 0 0.11-0.017 0.157-0.051 0.082-0.060 0.123-0.161 0.106-0.261l-0.163-0.952 0.691-0.674c0.072-0.071 0.099-0.177 0.067-0.273zM14.756 2.926c-0.063 0.061-0.091 0.15-0.077 0.236l0.095 0.557-0.5-0.263c-0.039-0.021-0.082-0.031-0.124-0.031s-0.085 0.010-0.124 0.031l-0.5 0.263 0.095-0.557c0.015-0.086-0.014-0.175-0.077-0.236l-0.405-0.395 0.559-0.081c0.087-0.013 0.162-0.067 0.201-0.146l0.25-0.507 0.25 0.507c0.039 0.079 0.114 0.133 0.201 0.146l0.559 0.081-0.405 0.395z"></path>
<path fill="#2196f3" style="fill: var(--color2, #2196f3)" d="M13.067 10.261h-0.533v0.533h0.533v-0.533z"></path>
<path fill="#2196f3" style="fill: var(--color2, #2196f3)" d="M13.067 11.328h-0.533v0.533h0.533v-0.533z"></path>
<path fill="#2196f3" style="fill: var(--color2, #2196f3)" d="M13.6 10.794h-0.533v0.533h0.533v-0.533z"></path>
<path fill="#2196f3" style="fill: var(--color2, #2196f3)" d="M12.533 10.794h-0.533v0.533h0.533v-0.533z"></path>
<path fill="#2196f3" style="fill: var(--color2, #2196f3)" d="M11.2 13.194h-0.533v0.533h0.533v-0.533z"></path>
<path fill="#2196f3" style="fill: var(--color2, #2196f3)" d="M11.2 14.261h-0.533v0.533h0.533v-0.533z"></path>
<path fill="#2196f3" style="fill: var(--color2, #2196f3)" d="M11.733 13.728h-0.533v0.533h0.533v-0.533z"></path>
<path fill="#2196f3" style="fill: var(--color2, #2196f3)" d="M10.667 13.728h-0.533v0.533h0.533v-0.533z"></path>
<path fill="#2196f3" style="fill: var(--color2, #2196f3)" d="M8 12.128h-0.533v0.533h0.533v-0.533z"></path>
<path fill="#2196f3" style="fill: var(--color2, #2196f3)" d="M8 13.194h-0.533v0.533h0.533v-0.533z"></path>
<path fill="#2196f3" style="fill: var(--color2, #2196f3)" d="M8.533 12.661h-0.533v0.533h0.533v-0.533z"></path>
<path fill="#2196f3" style="fill: var(--color2, #2196f3)" d="M7.467 12.661h-0.533v0.533h0.533v-0.533z"></path>
<path fill="#2196f3" style="fill: var(--color2, #2196f3)" d="M2.933 3.061h-0.533v0.533h0.533v-0.533z"></path>
<path fill="#2196f3" style="fill: var(--color2, #2196f3)" d="M2.933 4.128h-0.533v0.533h0.533v-0.533z"></path>
<path fill="#2196f3" style="fill: var(--color2, #2196f3)" d="M3.467 3.594h-0.533v0.533h0.533v-0.533z"></path>
<path fill="#2196f3" style="fill: var(--color2, #2196f3)" d="M2.4 3.594h-0.533v0.533h0.533v-0.533z"></path>
<path fill="#212121" style="fill: var(--color1, #212121)" d="M12.357 7.080c-0.144-0.194-0.355-0.319-0.594-0.352-0.241-0.034-0.478 0.029-0.67 0.176l-0.626 0.48-0.949 0.709-0.679-0.27c1.211-0.543 2.057-1.754 2.057-3.16 0-1.912-1.561-3.467-3.481-3.467s-3.481 1.555-3.481 3.467c0 0.693 0.207 1.337 0.56 1.879l-1.382-0.012c-0.001 0-0.002 0-0.002 0-0.004 0-0.008 0.002-0.012 0.002-0.026 0.001-0.052 0.006-0.078 0.015-0.006 0.002-0.013 0.004-0.019 0.007-0.003 0.001-0.006 0.002-0.010 0.003l-1.617 0.798c-0 0-0.001 0-0.001 0l-0.947 0.455c-0.010 0.005-0.021 0.011-0.031 0.018-0.377 0.251-0.506 0.745-0.299 1.148 0.11 0.214 0.298 0.372 0.528 0.445 0.089 0.028 0.179 0.041 0.27 0.041 0.145 0 0.288-0.035 0.42-0.106l0.694-0.369 1.132-0.585 0.678-0.004-2.721 2.708c-0 0-0.001 0-0.001 0.001l-0.669 0.667c-0.158 0.157-0.245 0.366-0.245 0.589s0.087 0.432 0.245 0.589c0.162 0.162 0.376 0.243 0.59 0.243s0.427-0.081 0.59-0.243l0.657-0.654 0.87-0.65 0.45 0.449-0.881 0.877c-0 0-0.001 0-0.001 0.001l-0.669 0.667c-0.158 0.157-0.245 0.366-0.245 0.589s0.087 0.432 0.245 0.589c0.162 0.162 0.376 0.243 0.59 0.243s0.427-0.081 0.59-0.243l1.741-1.733c0-0 0-0.001 0.001-0.001l0.505-0.5-0.002-0.002c0.003-0.003 0.008-0.004 0.011-0.008l2.583-2.829 1.736 0.247c0.013 0.002 0.025 0.003 0.038 0.003 0.032 0 0.063-0.008 0.094-0.019 0.009-0.003 0.017-0.007 0.025-0.012 0.010-0.005 0.020-0.007 0.029-0.014l1.607-1.067c0.006-0.004 0.009-0.010 0.015-0.015s0.014-0.007 0.020-0.013l0.636-0.595c0.331-0.31 0.376-0.818 0.106-1.181zM1.065 8.885c-0.087 0.046-0.185 0.056-0.279 0.026s-0.169-0.093-0.213-0.179c-0.081-0.157-0.034-0.348 0.107-0.451l0.657-0.316 0.225 0.656-0.496 0.264zM2.814 7.971l-0.774 0.4-0.219-0.642 1.013-0.5-0.020 0.742zM10.363 4.661c0 0.459-0.11 0.892-0.299 1.28l-2.091-0.95c-0.022-0.287-0.171-0.538-0.394-0.694l0.732-2.43c1.189 0.378 2.052 1.487 2.052 2.794zM4.469 4.661c0-1.617 1.322-2.933 2.947-2.933 0.126 0 0.25 0.011 0.373 0.026l-0.716 2.377c-0.010-0-0.019-0.003-0.029-0.003-0.516 0-0.936 0.419-0.936 0.933s0.42 0.933 0.936 0.933c0.347 0 0.647-0.192 0.809-0.472l1.931 0.877c-0.537 0.723-1.397 1.195-2.368 1.195-1.625 0-2.947-1.316-2.947-2.933zM7.447 5.061c0 0.221-0.181 0.4-0.403 0.4s-0.403-0.179-0.403-0.4c0-0.221 0.181-0.4 0.403-0.4s0.403 0.179 0.403 0.4zM1.232 12.573c-0.118 0.117-0.309 0.117-0.427 0-0.057-0.057-0.088-0.132-0.088-0.211s0.031-0.154 0.088-0.211l0.481-0.479 0.426 0.424-0.479 0.477zM2.839 14.44c-0.118 0.117-0.31 0.117-0.427 0-0.057-0.057-0.088-0.132-0.088-0.211s0.031-0.154 0.088-0.211l0.481-0.479 0.426 0.424-0.48 0.478zM4.58 12.705c-0 0-0.001 0-0.001 0.001l-0.882 0.88-0.426-0.424 0.882-0.878c0 0 0 0 0-0s0.001-0 0.001-0.001c0.020-0.020 0.033-0.044 0.045-0.068 0.003-0.007 0.010-0.013 0.013-0.020 0.008-0.021 0.010-0.043 0.013-0.064 0.002-0.012 0.007-0.024 0.007-0.036 0-0.018-0.006-0.035-0.010-0.053-0.003-0.016-0.003-0.032-0.009-0.048-0.010-0.025-0.027-0.047-0.046-0.069-0.005-0.006-0.007-0.013-0.013-0.019 0 0 0 0-0 0s-0-0.001-0.001-0.001l-0.804-0.8c-0.009-0.009-0.019-0.012-0.029-0.019-0.014-0.011-0.028-0.021-0.043-0.029s-0.031-0.012-0.047-0.016c-0.017-0.005-0.034-0.009-0.051-0.010-0.016-0.001-0.031 0.001-0.048 0.002-0.018 0.002-0.035 0.005-0.052 0.010s-0.032 0.014-0.047 0.022c-0.010 0.006-0.021 0.007-0.030 0.014l-0.887 0.662-0.45-0.449 1.2-1.193 2.18 2.144-0.464 0.459zM7.99 9.197c-0.008-0.001-0.015 0.002-0.023 0.001-0.019-0.001-0.038 0-0.058 0.003-0.015 0.003-0.030 0.006-0.044 0.011-0.017 0.006-0.033 0.014-0.048 0.023s-0.029 0.019-0.042 0.031c-0.006 0.006-0.014 0.008-0.020 0.015l-2.349 2.573-2.164-2.128 1.417-1.409c0.104-0.104 0.105-0.273 0.001-0.377-0.053-0.053-0.122-0.078-0.191-0.078v-0l-1.109 0.007 0.014-0.804 1.552 0.013c0.633 0.647 1.515 1.050 2.491 1.050 0.219 0 0.432-0.023 0.64-0.061 0.020 0.016 0.040 0.032 0.065 0.042l1.205 0.48 0.165 0.822-1.501-0.214zM10.010 9.286l-0.157-0.779 0.723-0.54 0.473 0.628-1.040 0.691zM11.887 7.871l-0.419 0.393-0.466-0.618 0.416-0.319c0.078-0.060 0.175-0.084 0.271-0.071 0.097 0.014 0.182 0.064 0.24 0.142 0.108 0.146 0.090 0.349-0.043 0.474z"></path>
<path fill="#212121" style="fill: var(--color1, #212121)" d="M6.801 9.272l-1.071-1.067c-0.104-0.104-0.272-0.104-0.376 0l-1.071 1.067c-0.050 0.050-0.078 0.118-0.078 0.189s0.028 0.139 0.078 0.189l1.071 1.067c0.052 0.052 0.12 0.078 0.188 0.078s0.136-0.026 0.188-0.078l1.071-1.067c0.050-0.050 0.079-0.118 0.079-0.189s-0.028-0.139-0.079-0.189zM5.542 10.152l-0.693-0.69 0.693-0.69 0.694 0.69-0.694 0.69z"></path>
<path fill="#212121" style="fill: var(--color1, #212121)" d="M8.582 2.535l-0.129 0.518c0.035 0.009 0.869 0.226 0.869 1.074h0.533c-0-1.009-0.833-1.483-1.273-1.592z"></path>
<path fill="#212121" style="fill: var(--color1, #212121)" d="M9.855 4.661h-0.533v0.533h0.533v-0.533z"></path>
</symbol>
<symbol id="icon-client1" viewBox="0 0 14 16">
<path d="M2.043 0l2.386 2.258-4.428-0.003v10.958h11.574v-4.19l2.383 2.256v-11.28h-11.915zM11.47 8.758l-6.764-6.403h6.764v6.403zM9.37 11.61h-7.538v-7.369h0.533v6.87h7.005v0.499zM3.612 14.672l-0.278 0.574-0.278-0.574h-0.234l0.406 0.765v0.446h0.211v-0.446l0.405-0.765h-0.233zM3.962 15.883l0.098-0.282h0.469l0.099 0.282h0.22l-0.458-1.21h-0.189l-0.457 1.21h0.219zM4.294 14.929l0.175 0.502h-0.351l0.175-0.502zM5.403 15.402c-0.029 0.043-0.046 0.095-0.046 0.152 0 0.001 0 0.001 0 0.002v-0c0 0.102 0.036 0.185 0.107 0.249s0.168 0.095 0.288 0.095c0.119 0 0.223-0.033 0.309-0.097l0.068 0.081h0.234l-0.178-0.21c0.070-0.095 0.105-0.218 0.105-0.367h-0.175c0 0.082-0.017 0.156-0.050 0.222l-0.234-0.276 0.082-0.060c0.050-0.034 0.092-0.076 0.125-0.125l0.001-0.002c0.024-0.039 0.038-0.087 0.038-0.138 0-0.001 0-0.001-0-0.002v0c0-0.001 0-0.003 0-0.005 0-0.075-0.033-0.141-0.085-0.187l-0-0c-0.054-0.049-0.125-0.079-0.204-0.079-0.004 0-0.008 0-0.013 0l0.001-0c-0.097 0-0.175 0.028-0.233 0.083s-0.086 0.13-0.086 0.225c0 0.039 0.009 0.079 0.027 0.121 0.019 0.042 0.052 0.092 0.099 0.151-0.090 0.064-0.15 0.12-0.18 0.167zM5.949 15.67c-0.052 0.042-0.118 0.068-0.191 0.068h-0c-0.003 0-0.006 0-0.010 0-0.052 0-0.1-0.020-0.135-0.053l0 0c-0.034-0.033-0.054-0.079-0.054-0.129 0-0.002 0-0.005 0-0.007l-0 0c0-0.065 0.033-0.123 0.1-0.173l0.026-0.018 0.264 0.312zM5.732 15.134c-0.057-0.070-0.086-0.129-0.086-0.175 0-0.041 0.012-0.074 0.035-0.1 0.022-0.025 0.054-0.040 0.089-0.040 0.002 0 0.003 0 0.005 0l-0-0c0.001-0 0.003-0 0.004-0 0.033 0 0.064 0.013 0.086 0.034l-0-0c0.024 0.022 0.036 0.049 0.036 0.081 0 0.001 0 0.003 0 0.004 0 0.045-0.020 0.085-0.051 0.113l-0 0-0.026 0.020-0.092 0.063zM7.702 15.791c0.083-0.073 0.131-0.174 0.143-0.302h-0.209c-0.011 0.086-0.037 0.148-0.079 0.185s-0.104 0.056-0.186 0.056c-0.090 0-0.159-0.034-0.206-0.103s-0.070-0.169-0.070-0.3v-0.107c0.001-0.129 0.026-0.227 0.075-0.293s0.12-0.1 0.211-0.1c0.079 0 0.138 0.019 0.179 0.058s0.066 0.101 0.077 0.188h0.209c-0.014-0.132-0.061-0.235-0.142-0.307s-0.189-0.109-0.322-0.109c-0.099 0-0.187 0.024-0.262 0.071-0.076 0.049-0.136 0.117-0.172 0.198l-0.001 0.003c-0.039 0.085-0.061 0.184-0.061 0.288 0 0.005 0 0.010 0 0.015l-0-0.001v0.113c0.002 0.111 0.022 0.209 0.062 0.293s0.097 0.149 0.17 0.195c0.074 0.046 0.159 0.068 0.255 0.068 0.138 0 0.249-0.036 0.332-0.108zM8.938 15.621c0.041-0.090 0.062-0.194 0.062-0.313v-0.067c0-0.004 0-0.008 0-0.012 0-0.108-0.023-0.21-0.065-0.303l0.002 0.005c-0.038-0.085-0.099-0.155-0.175-0.203l-0.002-0.001c-0.076-0.048-0.163-0.071-0.262-0.071s-0.186 0.024-0.262 0.072c-0.076 0.048-0.135 0.116-0.177 0.207-0.039 0.088-0.062 0.19-0.062 0.298 0 0.005 0 0.011 0 0.016l-0-0.001v0.068c0.001 0.116 0.021 0.218 0.063 0.306s0.101 0.157 0.178 0.206c0.077 0.048 0.164 0.071 0.262 0.071 0.099 0 0.187-0.024 0.263-0.071s0.135-0.117 0.176-0.206zM8.713 14.937c0.051 0.071 0.076 0.175 0.076 0.309v0.063c0 0.136-0.025 0.24-0.076 0.311s-0.121 0.107-0.214 0.107c-0.003 0-0.006 0-0.009 0-0.086 0-0.161-0.043-0.207-0.108l-0.001-0.001c-0.052-0.073-0.077-0.175-0.077-0.308v-0.070c0.001-0.13 0.027-0.231 0.078-0.302 0.046-0.065 0.12-0.107 0.205-0.107 0.003 0 0.006 0 0.009 0l-0-0c0.093 0 0.165 0.036 0.215 0.107z"></path>
</symbol>
<symbol id="icon-client2" viewBox="0 0 12 16">
<path  d="M5.266 0.903h-0.042c-0.065-0.004-0.129-0.006-0.194-0.007h-0.14c-0.122 0-0.247 0.003-0.37 0.009-0.004-0-0.009-0.001-0.014-0.001s-0.010 0-0.015 0.001l0.001-0c-1.188 0.069-2.291 0.366-3.288 0.848l0.052-0.023-0.133 0.064v6.813l0.311-0.106c0.273-0.094 0.564-0.178 0.866-0.257 0.744-0.199 1.601-0.319 2.484-0.331l0.007-0v0.895c-0.111 0.001-0.219 0.004-0.328 0.009h-0.026c-0.699 0.039-1.355 0.144-1.986 0.31l0.069-0.015c-0.867 0.22-1.627 0.525-2.333 0.915l0.050-0.025v-8.738c0.69-0.41 1.487-0.744 2.332-0.96l0.063-0.014c0.676-0.182 1.454-0.288 2.255-0.291h0.133c0.157 0.004 0.311 0.011 0.455 0.022 0.415 0.030 0.799 0.094 1.17 0.189l-0.045-0.010v0.881c-0.314-0.077-0.686-0.135-1.067-0.163l-0.023-0.001-0.022-0.002c-0.076-0.006-0.152-0.013-0.223-0.013zM6.816 1.803c0.195 0.015 0.398 0.022 0.602 0.022 0.845-0.003 1.662-0.114 2.441-0.32l-0.068 0.015c0.867-0.221 1.626-0.526 2.332-0.916l-0.050 0.025v8.582c-0.69 0.41-1.487 0.744-2.332 0.96l-0.064 0.014c-0.677 0.181-1.454 0.287-2.255 0.29h-0.002c-0.016 0-0.036 0-0.055 0-0.588 0-1.159-0.074-1.705-0.212l0.048 0.010v-8.638c0.132 0.031 0.269 0.059 0.407 0.082 0.227 0.038 0.467 0.066 0.701 0.084zM11.184 1.87l-0.311 0.105c-0.286 0.096-0.575 0.182-0.866 0.259-0.775 0.208-1.666 0.328-2.584 0.332h-0.002c-0.203 0-0.39-0.006-0.57-0.017l-0.248-0.016v7.008l0.213 0.018c0.198 0.018 0.402 0.026 0.607 0.026 0.725-0.003 1.427-0.099 2.095-0.277l-0.058 0.013c0.611-0.155 1.14-0.351 1.643-0.595l-0.051 0.022 0.133-0.064v-6.815z"></path>
<path  d="M0.842 12.988c-0.084-0.087-0.201-0.14-0.33-0.14-0.006 0-0.011 0-0.017 0l0.001-0c-0.002-0-0.004-0-0.007-0-0.070 0-0.136 0.014-0.197 0.039l0.003-0.001c-0.118 0.047-0.21 0.14-0.255 0.256l-0.001 0.003c-0.025 0.062-0.037 0.127-0.036 0.193v1.167c-0.003 0.082 0.013 0.164 0.046 0.239 0.028 0.060 0.067 0.113 0.117 0.157 0.046 0.039 0.101 0.068 0.16 0.083 0.057 0.016 0.116 0.024 0.174 0.024 0.065 0.001 0.129-0.013 0.188-0.041 0.175-0.078 0.295-0.25 0.295-0.451v-0.13h-0.306v0.104c0 0.002 0 0.005 0 0.007 0 0.035-0.007 0.068-0.019 0.099l0.001-0.002c-0.010 0.026-0.025 0.048-0.044 0.066l-0 0c-0.035 0.027-0.079 0.044-0.128 0.045h-0c-0.005 0.001-0.012 0.001-0.018 0.001-0.051 0-0.097-0.025-0.125-0.063l-0-0c-0.026-0.041-0.041-0.091-0.041-0.145 0-0.004 0-0.008 0-0.012l-0 0.001v-1.089c-0.002-0.060 0.011-0.12 0.038-0.174 0.028-0.043 0.076-0.072 0.131-0.072 0.006 0 0.013 0 0.019 0.001l-0.001-0c0.002-0 0.004-0 0.006-0 0.053 0 0.101 0.026 0.13 0.066l0 0c0.032 0.041 0.051 0.093 0.051 0.15 0 0.002-0 0.005-0 0.007v-0 0.101h0.302v-0.119c0-0.002 0-0.003 0-0.005 0-0.072-0.014-0.14-0.039-0.203l0.001 0.004c-0.024-0.064-0.059-0.118-0.102-0.165l0 0zM2.655 12.975c-0.093-0.079-0.214-0.128-0.347-0.129h-0c-0.062 0-0.124 0.011-0.182 0.033-0.126 0.045-0.225 0.138-0.278 0.256l-0.001 0.003c-0.031 0.071-0.046 0.148-0.045 0.226v1.119c-0.002 0.079 0.013 0.157 0.045 0.229 0.028 0.060 0.068 0.114 0.118 0.157 0.047 0.043 0.102 0.077 0.161 0.098 0.058 0.022 0.12 0.033 0.182 0.033 0.133-0 0.255-0.050 0.348-0.132l-0.001 0.001c0.049-0.044 0.088-0.097 0.115-0.157 0.031-0.072 0.046-0.15 0.045-0.229v-1.12c0-0.003 0-0.006 0-0.010 0-0.078-0.016-0.152-0.046-0.22l0.001 0.003c-0.028-0.064-0.067-0.118-0.115-0.163l-0-0zM2.513 14.484c0 0.005 0.001 0.011 0.001 0.017 0 0.057-0.023 0.108-0.061 0.145l-0 0c-0.039 0.033-0.089 0.052-0.144 0.052s-0.105-0.020-0.144-0.053l0 0c-0.038-0.037-0.061-0.088-0.061-0.144 0-0.006 0-0.012 0.001-0.018l-0 0.001v-1.12c-0-0.005-0.001-0.011-0.001-0.017 0-0.057 0.023-0.108 0.061-0.145l0-0c0.039-0.033 0.089-0.052 0.144-0.052s0.105 0.020 0.144 0.053l-0-0c0.038 0.037 0.061 0.088 0.061 0.144 0 0.006-0 0.012-0.001 0.018l0-0.001v1.12zM5.036 14.985v-2.12h-0.293l-0.386 1.122h-0.005l-0.389-1.122h-0.29v2.119h0.303v-1.289h0.006l0.296 0.911h0.151l0.299-0.911h0.005v1.289h0.303zM6.756 13.014c-0.046-0.052-0.106-0.092-0.171-0.116-0.062-0.021-0.134-0.033-0.208-0.033-0.004 0-0.008 0-0.012 0l0.001-0h-0.45v2.12h0.302v-0.828h0.155c0.094 0.004 0.188-0.016 0.273-0.058 0.069-0.039 0.125-0.094 0.165-0.16l0.001-0.002c0.035-0.056 0.058-0.119 0.069-0.185 0.010-0.067 0.016-0.144 0.016-0.222 0-0.007-0-0.013-0-0.020l0 0.001c0.003-0.102-0.007-0.204-0.030-0.303-0.021-0.076-0.060-0.142-0.111-0.195l0 0zM6.601 13.66c-0.001 0.040-0.012 0.078-0.029 0.112l0.001-0.002c-0.018 0.033-0.044 0.058-0.077 0.074l-0.001 0c-0.037 0.017-0.081 0.027-0.127 0.027-0.005 0-0.011-0-0.016-0l0.001 0h-0.138v-0.721h0.156c0.004-0 0.009-0 0.015-0 0.044 0 0.086 0.010 0.124 0.028l-0.002-0.001c0.031 0.018 0.056 0.045 0.070 0.077l0 0.001c0.017 0.037 0.026 0.078 0.026 0.118v0.141c0 0.049 0.003 0.1 0 0.146h-0.003zM8.187 12.865h-0.248l-0.467 2.12h0.302l0.089-0.455h0.412l0.089 0.455h0.302l-0.479-2.12zM7.908 14.24l0.149-0.768h0.006l0.148 0.768h-0.302zM10.138 14.142h-0.006l-0.456-1.277h-0.29v2.12h0.302v-1.275h0.006l0.462 1.274h0.284v-2.119h-0.302v1.277zM11.984 12.865l-0.243 0.843h-0.006l-0.243-0.843h-0.319l0.415 1.224v0.896h0.302v-0.896l0.415-1.224h-0.32zM0 15.583h0.146v0.408h0.099v-0.409h0.145v-0.084h-0.389v0.084zM1.224 15.499l-0.191 0.492h0.105l0.041-0.112h0.196l0.042 0.112h0.108l-0.196-0.492h-0.105zM1.208 15.797l0.067-0.182 0.067 0.182h-0.134zM2.433 15.81h0.114v0.063c-0.032 0.026-0.072 0.041-0.117 0.042h-0c-0.002 0-0.005 0-0.007 0-0.039 0-0.075-0.018-0.097-0.047l-0-0c-0.023-0.033-0.037-0.073-0.037-0.117 0-0.004 0-0.008 0-0.012l-0 0.001c0-0.11 0.047-0.164 0.142-0.164 0.003-0 0.007-0.001 0.011-0.001 0.049 0 0.089 0.033 0.101 0.078l0 0.001 0.097-0.019c-0.021-0.096-0.090-0.145-0.209-0.145-0.002-0-0.004-0-0.007-0-0.064 0-0.122 0.024-0.166 0.064l0-0c-0.044 0.044-0.071 0.104-0.071 0.171 0 0.006 0 0.013 0.001 0.019l-0-0.001c-0 0.003-0 0.007-0 0.011 0 0.066 0.024 0.127 0.064 0.174l-0-0c0.043 0.045 0.104 0.073 0.172 0.073 0.005 0 0.011-0 0.016-0.001l-0.001 0c0.002 0 0.005 0 0.008 0 0.078 0 0.148-0.030 0.201-0.079l-0 0v-0.194h-0.213v0.083zM3.669 15.499h-0.1v0.492h0.345v-0.084h-0.245v-0.409zM4.713 15.499h-0.1v0.492h0.1v-0.492zM5.734 15.828l-0.202-0.329h-0.096v0.492h0.092v-0.322l0.198 0.322h0.099v-0.492h-0.091v0.329zM6.658 15.774h0.245v-0.084h-0.245v-0.108h0.264v-0.084h-0.363v0.492h0.374v-0.084h-0.274v-0.133zM8.896 15.693h-0.194v-0.194h-0.098v0.492h0.098v-0.215h0.194v0.215h0.099v-0.492h-0.099v0.194zM9.825 15.774h0.246v-0.084h-0.246v-0.108h0.265v-0.084h-0.363v0.492h0.373v-0.084h-0.274v-0.133zM11.084 15.775c0.086-0.014 0.129-0.059 0.129-0.137 0.001-0.004 0.001-0.009 0.001-0.014 0-0.039-0.019-0.074-0.049-0.095l-0-0c-0.036-0.019-0.079-0.030-0.125-0.030-0.007 0-0.013 0-0.020 0.001l0.001-0h-0.209v0.492h0.099v-0.206h0.019c0.002-0 0.005-0 0.008-0 0.019 0 0.038 0.004 0.054 0.012l-0.001-0c0.014 0.009 0.026 0.021 0.035 0.036l0.107 0.156h0.118l-0.060-0.096c-0.027-0.048-0.064-0.088-0.108-0.117l-0.001-0.001zM10.984 15.706h-0.073v-0.123h0.078c0.006-0.001 0.013-0.001 0.021-0.001 0.028 0 0.056 0.005 0.081 0.013l-0.002-0.001c0.013 0.012 0.021 0.029 0.021 0.048 0 0.021-0.010 0.040-0.026 0.052l-0 0c-0.025 0.008-0.053 0.012-0.082 0.012-0.006 0-0.013-0-0.019-0.001l0.001 0zM12.034 15.774h0.245v-0.084h-0.245v-0.108h0.265v-0.084h-0.364v0.492h0.374v-0.084h-0.274v-0.133z"></path>
</symbol>
<symbol id="icon-client3" viewBox="0 0 17 16">
<path  d="M2.821 15.658c0.006 0 0.012 0.002 0.018 0.004s0.011 0.005 0.015 0.009l-0-0 0.083 0.079c-0.065 0.064-0.144 0.116-0.234 0.151-0.092 0.034-0.199 0.054-0.31 0.054-0.008 0-0.015-0-0.023-0l0.001 0c-0.107 0.002-0.213-0.015-0.311-0.051-0.091-0.033-0.169-0.082-0.235-0.143l0 0c-0.064-0.061-0.116-0.134-0.15-0.216l-0.002-0.004c-0.034-0.081-0.053-0.175-0.053-0.274 0-0.003 0-0.006 0-0.009v0c-0-0.004-0-0.009-0-0.015 0-0.194 0.084-0.368 0.218-0.489l0.001-0.001c0.071-0.062 0.156-0.111 0.249-0.144 0.102-0.034 0.211-0.051 0.321-0.050 0.006-0 0.013-0 0.020-0 0.1 0 0.195 0.017 0.284 0.048l-0.006-0.002c0.082 0.031 0.158 0.074 0.224 0.128l-0.070 0.085c-0.005 0.006-0.011 0.011-0.018 0.015l-0 0c-0.007 0.004-0.015 0.007-0.024 0.007-0.001 0-0.003-0-0.004-0l0 0c-0.011-0.001-0.022-0.004-0.031-0.009l0 0-0.037-0.023-0.052-0.029c-0.047-0.023-0.103-0.041-0.16-0.050l-0.003-0c-0.034-0.006-0.074-0.009-0.115-0.009-0.003 0-0.006 0-0.010 0h0c-0.002-0-0.005-0-0.008-0-0.080 0-0.157 0.014-0.228 0.040l0.005-0.001c-0.070 0.025-0.13 0.061-0.181 0.107l0-0c-0.052 0.049-0.091 0.107-0.117 0.17s-0.042 0.138-0.042 0.216c0 0.003 0 0.005 0 0.008v-0c-0 0.003-0 0.006-0 0.009 0 0.079 0.016 0.154 0.044 0.222l-0.001-0.004c0.026 0.062 0.065 0.12 0.115 0.169 0.048 0.046 0.107 0.082 0.173 0.105 0.068 0.024 0.141 0.037 0.214 0.036 0.042 0 0.085-0.002 0.127-0.007 0.106-0.011 0.2-0.053 0.275-0.117l-0.001 0.001c0.011-0.009 0.024-0.014 0.039-0.014h0zM5.221 15.259c0 0.003 0 0.005 0 0.008 0 0.098-0.021 0.192-0.058 0.277l0.002-0.004c-0.037 0.086-0.090 0.159-0.156 0.217l-0.001 0.001c-0.069 0.061-0.151 0.11-0.241 0.141l-0.005 0.002c-0.094 0.032-0.203 0.051-0.316 0.051s-0.222-0.018-0.323-0.053l0.007 0.002c-0.094-0.034-0.175-0.082-0.245-0.144l0.001 0.001c-0.067-0.060-0.12-0.134-0.156-0.216l-0.002-0.004c-0.035-0.083-0.056-0.18-0.056-0.281s0.021-0.198 0.058-0.286l-0.002 0.005c0.035-0.082 0.089-0.157 0.158-0.221 0.069-0.061 0.152-0.107 0.244-0.138 0.094-0.033 0.203-0.051 0.316-0.051s0.222 0.019 0.323 0.054l-0.007-0.002c0.092 0.032 0.176 0.081 0.245 0.143s0.122 0.137 0.157 0.218c0.038 0.091 0.058 0.186 0.056 0.283zM5.003 15.259c0-0.004 0-0.008 0-0.012 0-0.077-0.015-0.151-0.041-0.218l0.001 0.004c-0.051-0.13-0.154-0.23-0.283-0.274l-0.003-0.001c-0.069-0.023-0.147-0.037-0.23-0.037s-0.161 0.014-0.235 0.039l0.005-0.002c-0.068 0.024-0.127 0.061-0.176 0.107l0-0c-0.049 0.046-0.087 0.102-0.111 0.166l-0.001 0.003c-0.025 0.067-0.040 0.145-0.040 0.226s0.015 0.158 0.041 0.23l-0.001-0.005c0.050 0.13 0.155 0.23 0.285 0.273l0.003 0.001c0.148 0.048 0.311 0.048 0.459 0 0.067-0.023 0.126-0.059 0.175-0.106 0.050-0.049 0.088-0.107 0.111-0.169 0.028-0.072 0.041-0.149 0.040-0.226zM6.858 15.495l0.022 0.050c0.008-0.018 0.016-0.034 0.024-0.050 0.009-0.020 0.018-0.036 0.028-0.051l-0.001 0.002 0.531-0.838c0.011-0.014 0.020-0.024 0.030-0.026s0.023-0.005 0.036-0.005c0.002 0 0.005 0 0.007 0l-0-0h0.157v1.364h-0.186v-1.045c-0-0.007-0.001-0.015-0.001-0.024s0-0.017 0.001-0.025l-0 0.001-0.534 0.85c-0.007 0.013-0.018 0.024-0.031 0.031l-0 0c-0.013 0.007-0.028 0.011-0.045 0.011-0 0-0.001 0-0.001 0h-0.030c-0 0-0.001 0-0.001 0-0.016 0-0.032-0.004-0.045-0.012l0 0c-0.013-0.007-0.024-0.018-0.031-0.030l-0-0-0.55-0.856v1.094h-0.179v-1.361h0.157c0.002-0 0.005-0 0.007-0 0.013 0 0.026 0.002 0.037 0.005l-0.001-0c0.013 0.006 0.023 0.015 0.029 0.026l0.542 0.839c0.010 0.014 0.019 0.030 0.026 0.047l0.001 0.002zM8.855 15.427v0.51h-0.207v-1.362h0.463c0.088-0.002 0.174 0.009 0.259 0.030 0.067 0.017 0.13 0.046 0.183 0.085 0.044 0.035 0.079 0.080 0.103 0.131l0.001 0.002c0.025 0.056 0.037 0.115 0.035 0.174 0 0.002 0 0.005 0 0.008 0 0.123-0.059 0.232-0.15 0.301l-0.001 0.001c-0.053 0.041-0.116 0.072-0.184 0.090-0.070 0.020-0.151 0.032-0.234 0.032-0.006 0-0.012-0-0.017-0l-0.251-0.004zM8.855 15.281h0.251c0.054 0.001 0.109-0.006 0.161-0.021 0.044-0.013 0.083-0.033 0.117-0.059l-0.001 0.001c0.058-0.048 0.095-0.121 0.095-0.202 0-0.001 0-0.002-0-0.003v0c0-0.004 0-0.009 0-0.015 0-0.035-0.008-0.068-0.022-0.098l0.001 0.001c-0.017-0.037-0.042-0.068-0.072-0.093l-0-0c-0.069-0.047-0.155-0.074-0.247-0.074-0.012 0-0.023 0-0.034 0.001l0.002-0h-0.251v0.561zM11.647 15.94h-0.164c-0.001 0-0.002 0-0.003 0-0.016 0-0.031-0.005-0.043-0.013l0 0c-0.012-0.008-0.021-0.019-0.027-0.031l-0-0-0.141-0.329h-0.71l-0.146 0.329c-0.013 0.026-0.040 0.044-0.070 0.044-0.001 0-0.001-0-0.002-0h-0.164l0.623-1.364h0.216l0.632 1.364zM10.618 15.434h0.586l-0.247-0.555c-0.019-0.042-0.034-0.085-0.047-0.128l-0.024 0.071c-0.007 0.022-0.015 0.042-0.023 0.058l-0.245 0.554zM12.544 14.583c0.012 0.006 0.023 0.014 0.031 0.024l0.909 1.028v-1.059h0.186v1.364h-0.104c-0.001 0-0.002 0-0.002 0-0.015 0-0.028-0.003-0.041-0.009l0.001 0c-0.013-0.007-0.024-0.015-0.033-0.025l-0-0-0.908-1.027c0 0.007 0.001 0.015 0.001 0.023s-0 0.016-0.001 0.025l0-0.001v1.013h-0.186v-1.364h0.11c0.013 0 0.026 0.002 0.037 0.006zM15.201 15.398v0.541h-0.208v-0.541l-0.574-0.821h0.186c0.001-0 0.003-0 0.005-0 0.015 0 0.029 0.004 0.040 0.012l-0-0c0.011 0.009 0.021 0.019 0.028 0.031l0.359 0.53c0.014 0.023 0.027 0.043 0.037 0.063s0.019 0.039 0.026 0.058l0.027-0.059c0.010-0.021 0.022-0.042 0.035-0.062l0.354-0.533c0.008-0.011 0.017-0.021 0.026-0.029l0-0c0.011-0.008 0.026-0.013 0.041-0.013 0.001 0 0.003 0 0.004 0l-0-0h0.188l-0.575 0.825zM6.755 12.288c0.090 0.010 0.182 0.018 0.274 0.025 1.402-0.545 2.587-1.436 3.409-2.563s1.242-2.439 1.21-3.773l-1.545-1.342c0.314 1.42 0.168 2.888-0.424 4.239s-1.604 2.533-2.925 3.413z"></path>
<path  d="M6.203 12.226l0.042 0.008c1.411-0.877 2.486-2.102 3.088-3.515s0.701-2.952 0.286-4.415l-2.2-1.911c0.89 1.571 1.248 3.33 1.032 5.070s-0.994 3.393-2.248 4.764zM13.664 7.553c-0.374 1.466-1.282 2.787-2.589 3.769-0.357 0.272-0.759 0.526-1.184 0.745l-0.046 0.022c1.064-0.272 2.042-0.752 2.859-1.404s1.45-1.459 1.851-2.357l-0.892-0.774z"></path>
<path  d="M13.314 7.337l-1.27-1.104c-0.024 1.258-0.436 2.488-1.192 3.561s-1.83 1.951-3.109 2.542h0.006c0.285 0 0.57-0.015 0.853-0.044 1.195-0.424 2.251-1.098 3.073-1.963s1.386-1.893 1.639-2.992zM6.387 1.585l-1.515-1.318c-1.355 0.455-2.52 1.254-3.343 2.294s-1.266 2.271-1.27 3.533c0.005 1.394 0.545 2.747 1.535 3.845s2.372 1.877 3.929 2.215c1.39-1.471 2.203-3.289 2.323-5.19s-0.462-3.785-1.659-5.379zM16.815 7.134c-0.005-1.654-0.764-3.239-2.11-4.409s-3.171-1.829-5.075-1.834c-0.004 0-0.009-0-0.014-0-0.915 0-1.795 0.152-2.615 0.433l0.057-0.017 9.278 8.061c0.302-0.657 0.479-1.425 0.48-2.234v-0z"></path>
</symbol>
<symbol id="icon-client4" viewBox="0 0 32 16">
<path  d="M5.008 4.992h-0.001c-0.914 0-1.654 0.658-1.654 1.47v0.001c0 0.812 0.741 1.47 1.654 1.47h0.001c0.914 0 1.654-0.658 1.654-1.47v-0.001c0-0.812-0.741-1.47-1.654-1.47zM17.217 4.522c-0.003-1.128-0.508-2.209-1.405-3.006s-2.113-1.246-3.382-1.249c-1.269 0.002-2.486 0.451-3.384 1.248s-1.403 1.878-1.406 3.006v6.218s9.575-0.948 9.576-6.217v-0.001zM0 12.781c0.002 0.785 0.354 1.536 0.978 2.091s1.47 0.867 2.353 0.87c0.883-0.002 1.728-0.315 2.353-0.87s0.976-1.306 0.978-2.091v-4.327s-6.662 0.66-6.662 4.326zM3.331 13.556c-0.173 0-0.341-0.045-0.485-0.131-0.14-0.082-0.25-0.201-0.319-0.343l-0.002-0.005c-0.042-0.087-0.066-0.189-0.066-0.296 0-0.054 0.006-0.106 0.018-0.156l-0.001 0.005c0.034-0.15 0.117-0.289 0.238-0.397 0.122-0.107 0.273-0.182 0.441-0.211l0.005-0.001c0.051-0.010 0.11-0.015 0.171-0.015 0.12 0 0.234 0.022 0.34 0.061l-0.007-0.002c0.16 0.059 0.296 0.158 0.392 0.286s0.147 0.277 0.147 0.43c0 0.102-0.022 0.203-0.066 0.298-0.047 0.099-0.111 0.183-0.188 0.251l-0.001 0.001c-0.081 0.072-0.177 0.13-0.283 0.169-0.099 0.038-0.214 0.059-0.334 0.059-0 0-0 0-0.001 0h0v-0.003zM9.421 12.168v1.625h-0.335v-1.626h0.335zM10.069 12.862v0.261h-0.739v-0.261h0.739zM10.146 12.168v0.262h-0.817v-0.262h0.817zM11.675 12.943v0.077c0 0.123-0.017 0.234-0.050 0.333-0.032 0.097-0.081 0.18-0.142 0.252l0.001-0.001c-0.061 0.069-0.134 0.121-0.219 0.157-0.084 0.037-0.178 0.055-0.28 0.055s-0.195-0.018-0.28-0.055c-0.086-0.038-0.159-0.091-0.218-0.157l-0.001-0.001c-0.062-0.071-0.111-0.154-0.142-0.246l-0.002-0.005c-0.032-0.095-0.050-0.204-0.050-0.318 0-0.005 0-0.010 0-0.015l-0 0.001v-0.077c0-0.124 0.017-0.235 0.050-0.333s0.081-0.182 0.142-0.251c0.059-0.067 0.132-0.121 0.215-0.157l0.004-0.002c0.085-0.037 0.178-0.054 0.28-0.054s0.196 0.018 0.28 0.054c0.085 0.037 0.158 0.090 0.219 0.158s0.109 0.153 0.143 0.251c0.034 0.097 0.051 0.208 0.051 0.333zM11.337 13.020v-0.079c0-0.086-0.008-0.162-0.023-0.228-0.014-0.063-0.038-0.118-0.070-0.167l0.001 0.002c-0.028-0.042-0.066-0.076-0.11-0.099l-0.002-0.001c-0.042-0.022-0.092-0.035-0.145-0.035-0.002 0-0.004 0-0.006 0h0c-0.057 0-0.107 0.011-0.151 0.034-0.045 0.024-0.082 0.058-0.11 0.099l-0.001 0.001c-0.031 0.047-0.054 0.103-0.067 0.162l-0.001 0.003c-0.015 0.065-0.024 0.139-0.024 0.215 0 0.004 0 0.009 0 0.013v-0.001 0.079c0 0.085 0.008 0.161 0.024 0.227s0.038 0.121 0.069 0.166c0.028 0.042 0.066 0.077 0.11 0.101l0.002 0.001c0.044 0.023 0.094 0.035 0.151 0.035s0.107-0.011 0.15-0.034c0.045-0.025 0.083-0.059 0.11-0.101l0.001-0.001c0.031-0.048 0.054-0.103 0.068-0.163l0.001-0.003c0.015-0.066 0.023-0.142 0.023-0.227zM12.763 13.368c0-0.001 0-0.002 0-0.003 0-0.027-0.005-0.053-0.014-0.076l0 0.001c-0.010-0.026-0.026-0.048-0.047-0.065l-0-0c-0.028-0.023-0.060-0.043-0.094-0.058l-0.003-0.001c-0.043-0.020-0.097-0.041-0.152-0.058l-0.010-0.003c-0.086-0.027-0.155-0.055-0.223-0.085l0.013 0.005c-0.066-0.030-0.124-0.065-0.176-0.105l0.002 0.001c-0.048-0.038-0.087-0.084-0.117-0.137l-0.001-0.002c-0.027-0.051-0.043-0.112-0.043-0.176 0-0.003 0-0.006 0-0.009v0c-0-0.002-0-0.003-0-0.005 0-0.065 0.017-0.127 0.046-0.181l-0.001 0.002c0.030-0.056 0.072-0.104 0.125-0.143 0.054-0.040 0.117-0.071 0.19-0.093 0.074-0.022 0.155-0.032 0.242-0.032 0.12 0 0.224 0.021 0.314 0.065s0.158 0.102 0.208 0.177c0.050 0.075 0.075 0.161 0.075 0.258h-0.333c0-0.002 0-0.003 0-0.005 0-0.044-0.011-0.085-0.031-0.121l0.001 0.001c-0.020-0.037-0.051-0.067-0.088-0.085l-0.001-0.001c-0.041-0.020-0.088-0.032-0.139-0.032-0.004 0-0.008 0-0.012 0l0.001-0c-0.003-0-0.007-0-0.011-0-0.048 0-0.094 0.010-0.136 0.028l0.002-0.001c-0.036 0.015-0.066 0.039-0.087 0.070l-0 0.001c-0.018 0.027-0.029 0.060-0.029 0.096 0 0.001 0 0.002 0 0.002v-0c0 0.027 0.007 0.053 0.020 0.075 0.017 0.025 0.038 0.046 0.062 0.062l0.001 0.001c0.027 0.019 0.061 0.038 0.101 0.055s0.087 0.034 0.14 0.050c0.088 0.027 0.166 0.057 0.233 0.090s0.124 0.071 0.17 0.113c0.046 0.042 0.080 0.089 0.103 0.142s0.034 0.113 0.034 0.18c0 0.005 0 0.010 0 0.016 0 0.129-0.063 0.244-0.16 0.315l-0.001 0.001c-0.052 0.039-0.114 0.068-0.186 0.088-0.070 0.019-0.15 0.031-0.233 0.031-0.003 0-0.006-0-0.010-0h0c-0 0-0 0-0 0-0.084 0-0.166-0.011-0.244-0.033l0.006 0.002c-0.081-0.022-0.152-0.056-0.216-0.099l0.003 0.002c-0.063-0.043-0.114-0.098-0.15-0.163l-0.001-0.002c-0.038-0.067-0.057-0.146-0.057-0.238h0.336c0 0.051 0.008 0.093 0.024 0.128 0.015 0.034 0.037 0.063 0.065 0.085l0 0c0.029 0.021 0.064 0.038 0.101 0.046l0.002 0c0.040 0.010 0.084 0.014 0.132 0.014 0.004 0 0.008 0 0.012 0 0.047 0 0.092-0.009 0.134-0.026l-0.002 0.001c0.066-0.026 0.112-0.090 0.112-0.164 0-0.001 0-0.002-0-0.002v0zM14.051 12.168v1.625h-0.333v-1.626h0.333zM14.552 12.168v0.262h-1.326v-0.262h1.326zM15.833 13.532v0.261h-0.865v-0.261h0.865zM15.077 12.168v1.625h-0.335v-1.626h0.335zM15.72 12.83v0.254h-0.752v-0.254h0.752zM15.832 12.168v0.262h-0.864v-0.262h0.864zM16.028 12.168h0.606c0.125 0 0.231 0.019 0.321 0.056s0.159 0.092 0.207 0.165c0.048 0.073 0.072 0.163 0.072 0.269 0 0.087-0.014 0.162-0.044 0.225s-0.072 0.114-0.123 0.154l-0.001 0.001c-0.053 0.041-0.115 0.074-0.182 0.097l-0.005 0.001-0.106 0.056h-0.527l-0.002-0.261h0.392c0.003 0 0.007 0 0.011 0 0.049 0 0.096-0.012 0.137-0.032l-0.002 0.001c0.037-0.020 0.067-0.049 0.087-0.086l0.001-0.001c0.019-0.036 0.030-0.078 0.030-0.124 0-0.002-0-0.004-0-0.006v0c0-0.002 0-0.005 0-0.008 0-0.046-0.011-0.090-0.030-0.129l0.001 0.002c-0.020-0.038-0.050-0.068-0.087-0.086l-0.001-0.001c-0.040-0.019-0.088-0.031-0.138-0.031-0.004 0-0.008 0-0.011 0l0.001-0h-0.271v1.363h-0.335v-1.626zM16.937 13.793l-0.371-0.724 0.354-0.002 0.375 0.711v0.015h-0.358zM18.694 13.214h-0.414v-0.262h0.414c0.004 0 0.009 0 0.013 0 0.052 0 0.101-0.012 0.145-0.032l-0.002 0.001c0.038-0.020 0.069-0.051 0.088-0.088l0.001-0.001c0.017-0.039 0.028-0.084 0.028-0.132s-0.010-0.093-0.028-0.134l0.001 0.002c-0.019-0.042-0.050-0.077-0.087-0.1l-0.001-0.001c-0.041-0.024-0.091-0.038-0.144-0.038-0.004 0-0.009 0-0.013 0l0.001-0h-0.298v1.363h-0.335v-1.625h0.633c0.127 0 0.236 0.023 0.327 0.069s0.162 0.108 0.21 0.189 0.072 0.172 0.072 0.276c0 0.105-0.024 0.195-0.072 0.272s-0.118 0.136-0.21 0.177c-0.091 0.042-0.2 0.062-0.328 0.062zM20.625 13.532v0.261h-0.865v-0.261h0.865zM19.87 12.168v1.625h-0.335v-1.626h0.335zM20.512 12.83v0.254h-0.752v-0.254h0.752zM20.624 12.168v0.262h-0.864v-0.262h0.864zM21.57 12.168v1.625h-0.334v-1.626h0.334zM22.069 12.168v0.262h-1.326v-0.262h1.326zM23.351 13.532v0.261h-0.865v-0.261h0.865zM22.595 12.168v1.625h-0.335v-1.626h0.335zM23.238 12.83v0.254h-0.752v-0.254h0.752zM23.35 12.168v0.262h-0.864v-0.262h0.864zM23.546 12.168h0.606c0.124 0 0.231 0.019 0.32 0.056 0.090 0.037 0.16 0.092 0.208 0.165s0.072 0.163 0.072 0.269c0 0.087-0.015 0.162-0.045 0.225s-0.071 0.114-0.123 0.154l-0.001 0.001c-0.053 0.041-0.115 0.074-0.182 0.097l-0.005 0.001-0.106 0.056h-0.527l-0.002-0.261h0.392c0.003 0 0.007 0 0.011 0 0.049 0 0.096-0.012 0.137-0.032l-0.002 0.001c0.037-0.020 0.067-0.050 0.086-0.086l0.001-0.001c0.019-0.036 0.031-0.079 0.031-0.124 0-0.002-0-0.004-0-0.006v0c0-0.002 0-0.005 0-0.007 0-0.047-0.011-0.091-0.030-0.13l0.001 0.002c-0.020-0.038-0.050-0.068-0.087-0.086l-0.001-0.001c-0.040-0.019-0.088-0.031-0.138-0.031-0.004 0-0.008 0-0.011 0l0.001-0h-0.271v1.363h-0.335v-1.626zM24.454 13.794l-0.371-0.724 0.354-0.002 0.374 0.711v0.015h-0.358zM25.856 13.368c0-0.001 0-0.002 0-0.003 0-0.027-0.005-0.053-0.014-0.076l0 0.001c-0.010-0.026-0.026-0.048-0.047-0.065l-0-0c-0.028-0.023-0.060-0.043-0.095-0.058l-0.003-0.001c-0.043-0.020-0.097-0.041-0.152-0.058l-0.010-0.003c-0.086-0.027-0.155-0.055-0.222-0.085l0.013 0.005c-0.067-0.030-0.124-0.065-0.176-0.105l0.002 0.001c-0.048-0.038-0.087-0.084-0.117-0.137l-0.001-0.002c-0.027-0.051-0.043-0.112-0.043-0.176 0-0.003 0-0.006 0-0.009v0c-0-0.002-0-0.003-0-0.005 0-0.065 0.017-0.127 0.046-0.181l-0.001 0.002c0.030-0.056 0.072-0.104 0.125-0.143 0.053-0.040 0.117-0.071 0.19-0.093s0.154-0.032 0.242-0.032c0.12 0 0.225 0.021 0.314 0.065s0.158 0.102 0.208 0.177c0.050 0.075 0.075 0.161 0.075 0.258h-0.333c0-0.002 0-0.003 0-0.005 0-0.044-0.011-0.085-0.031-0.121l0.001 0.001c-0.020-0.037-0.051-0.067-0.088-0.085l-0.001-0.001c-0.041-0.020-0.088-0.032-0.139-0.032-0.004 0-0.008 0-0.011 0l0.001-0c-0.003-0-0.007-0-0.012-0-0.048 0-0.094 0.010-0.136 0.028l0.002-0.001c-0.036 0.015-0.066 0.039-0.087 0.070l-0 0.001c-0.018 0.027-0.029 0.060-0.029 0.096 0 0.001 0 0.002 0 0.002v-0c0 0.027 0.007 0.053 0.020 0.075 0.017 0.025 0.038 0.046 0.062 0.062l0.001 0.001c0.027 0.019 0.061 0.038 0.102 0.055s0.086 0.034 0.139 0.050c0.088 0.027 0.166 0.057 0.233 0.090s0.124 0.071 0.17 0.113c0.046 0.042 0.080 0.089 0.103 0.142s0.034 0.113 0.034 0.18c0 0.070-0.013 0.134-0.041 0.19s-0.067 0.103-0.119 0.142c-0.052 0.039-0.114 0.068-0.187 0.088s-0.152 0.030-0.242 0.030c-0.080 0-0.16-0.011-0.238-0.031-0.081-0.022-0.152-0.056-0.216-0.099l0.003 0.002c-0.063-0.043-0.114-0.098-0.15-0.163l-0.001-0.002c-0.038-0.067-0.057-0.146-0.057-0.238h0.336c0 0.051 0.008 0.093 0.024 0.128 0.015 0.034 0.037 0.063 0.065 0.085l0 0c0.029 0.021 0.064 0.038 0.101 0.046l0.002 0c0.040 0.010 0.084 0.014 0.132 0.014 0.003 0 0.008 0 0.012 0 0.047 0 0.092-0.009 0.134-0.026l-0.002 0.001c0.066-0.026 0.112-0.090 0.112-0.164 0-0.001 0-0.002-0-0.002v0z"></path>
</symbol>
<symbol id="icon-client5" viewBox="0 0 21 16">
<path  d="M1.619 13.186c0.083 0.094 0.127 0.212 0.125 0.333 0 0.008 0.001 0.016 0.001 0.025 0 0.074-0.017 0.145-0.046 0.208l0.001-0.003c-0.036 0.076-0.086 0.139-0.148 0.189l-0.001 0.001c-0.141 0.097-0.315 0.155-0.503 0.155-0.021 0-0.041-0.001-0.061-0.002l0.003 0h-0.989v-2.107h0.968c0.017-0.001 0.037-0.002 0.057-0.002 0.178 0 0.344 0.053 0.483 0.143l-0.003-0.002c0.063 0.048 0.112 0.109 0.145 0.177s0.047 0.143 0.043 0.218c0.005 0.116-0.034 0.23-0.112 0.322-0.075 0.084-0.179 0.142-0.295 0.165 0.131 0.022 0.25 0.086 0.334 0.18zM0.46 12.868h0.414c0.094 0.006 0.187-0.019 0.263-0.070 0.030-0.025 0.054-0.056 0.070-0.092l0.001-0.002c0.012-0.027 0.019-0.059 0.019-0.092 0-0.007-0-0.014-0.001-0.021l0 0.001c0-0.005 0.001-0.011 0.001-0.018 0-0.034-0.007-0.066-0.020-0.096l0.001 0.002c-0.016-0.037-0.040-0.069-0.069-0.094l-0-0c-0.067-0.045-0.149-0.072-0.238-0.072-0.012 0-0.023 0-0.034 0.001l0.001-0h-0.407v0.553zM1.178 13.677c0.032-0.026 0.058-0.058 0.076-0.095l0.001-0.002c0.014-0.030 0.022-0.064 0.022-0.101 0-0.006-0-0.012-0.001-0.017l0 0.001c0-0.005 0-0.010 0-0.015 0-0.038-0.008-0.073-0.024-0.105l0.001 0.001c-0.019-0.039-0.045-0.071-0.077-0.097l-0.001-0c-0.071-0.048-0.159-0.077-0.254-0.077-0.010 0-0.019 0-0.029 0.001l0.001-0h-0.434v0.58h0.44c0.099 0.005 0.197-0.020 0.278-0.073zM3.598 14.093l-0.538-0.824h-0.203v0.824h-0.463v-2.108h0.877c0.019-0.001 0.041-0.002 0.063-0.002 0.206 0 0.397 0.068 0.55 0.183l-0.002-0.002c0.123 0.114 0.197 0.265 0.209 0.425 0.001 0.013 0.002 0.029 0.002 0.044 0 0.154-0.055 0.294-0.146 0.404l0.001-0.001c-0.109 0.112-0.253 0.189-0.414 0.214l-0.004 0.001 0.574 0.842h-0.504zM2.858 12.981h0.379c0.263 0 0.395-0.106 0.395-0.319 0-0.005 0.001-0.011 0.001-0.017 0-0.040-0.008-0.078-0.023-0.113l0.001 0.002c-0.018-0.043-0.043-0.079-0.075-0.109l-0-0c-0.072-0.054-0.163-0.087-0.261-0.087-0.013 0-0.026 0.001-0.038 0.002l0.002-0h-0.383l0.004 0.641zM6.131 13.668h-0.923l-0.163 0.425h-0.486l0.848-2.084h0.525l0.845 2.084h-0.485l-0.16-0.424zM6.007 13.349l-0.337-0.89-0.337 0.89h0.675zM9.301 14.093h-0.46l-1.031-1.433v1.433h-0.459v-2.108h0.459l1.031 1.442v-1.442h0.46v2.108zM11.926 13.588c-0.095 0.159-0.24 0.289-0.416 0.372-0.179 0.084-0.388 0.133-0.609 0.133-0.013 0-0.026-0-0.039-0.001l0.002 0h-0.818v-2.108h0.819c0.011-0 0.025-0.001 0.039-0.001 0.22 0 0.429 0.048 0.618 0.134l-0.009-0.004c0.176 0.082 0.321 0.21 0.416 0.368 0.095 0.172 0.144 0.361 0.144 0.553s-0.049 0.381-0.144 0.553zM11.4 13.538c0.125-0.131 0.202-0.308 0.203-0.503v-0c0-0.185-0.072-0.363-0.203-0.503-0.143-0.113-0.325-0.181-0.523-0.181-0.019 0-0.037 0.001-0.055 0.002l0.002-0h-0.319v1.364h0.319c0.016 0.001 0.034 0.002 0.053 0.002 0.198 0 0.381-0.068 0.525-0.182l-0.002 0.001zM6.419 0.261s5.936 2.052 5.811 5.022v5.023s-5.932-2.053-5.809-5.023l-0.002-5.022zM17.518 9.13c1.121-0.706 2.418-1.144 3.772-1.273v-1.573c-1.56 0.551-2.883 1.549-3.772 2.845z"></path>
<path  d="M16.845 9.603c0.917-1.692 2.508-2.997 4.445-3.648v-4.53s-8.454 2.923-8.276 7.152v7.151s0.377-0.131 0.97-0.376c0-0.228 0-0.459 0.027-0.691 0.175-1.963 1.194-3.782 2.834-5.058z"></path>
<path  d="M16.041 12.26c0.044-0.496 0.143-0.987 0.296-1.464-1.021 1.101-1.639 2.468-1.768 3.908-0.013 0.136-0.019 0.272-0.022 0.412 0.705-0.309 1.239-0.571 1.762-0.851l-0.136 0.067c-0.15-0.681-0.194-1.378-0.131-2.071zM16.377 12.286c-0.017 0.174-0.026 0.376-0.026 0.58 0 0.458 0.048 0.905 0.138 1.337l-0.007-0.042c2.31-1.266 4.906-3.221 4.805-5.584v-0.206c-1.65 0.169-3.194 0.83-4.395 1.88-0.265 0.595-0.448 1.285-0.513 2.009l-0.002 0.025z"></path>
</symbol>
<symbol id="icon-client6" viewBox="0 0 33 16">
<path  d="M16.862 7.612c-0.136-0.175-0.217-0.397-0.217-0.639 0-0.024 0.001-0.048 0.002-0.071l-0 0.003v-1.025c0-0.314 0.071-0.553 0.214-0.716s0.387-0.245 0.734-0.244c0.326 0 0.558 0.070 0.694 0.209 0.149 0.177 0.222 0.394 0.206 0.613v0.241h-0.583v-0.244c0.002-0.080-0.004-0.16-0.017-0.239-0.010-0.058-0.040-0.107-0.083-0.142l-0-0c-0.052-0.035-0.117-0.056-0.186-0.056-0.009 0-0.017 0-0.026 0.001l0.001-0c-0.008-0.001-0.016-0.001-0.025-0.001-0.073 0-0.142 0.022-0.198 0.060l0.001-0.001c-0.048 0.039-0.083 0.093-0.096 0.155l-0 0.002c-0.015 0.070-0.023 0.151-0.023 0.234 0 0.007 0 0.014 0 0.021l-0-0.001v1.244c-0.009 0.12 0.017 0.24 0.075 0.349 0.030 0.037 0.070 0.067 0.115 0.084l0.002 0.001c0.034 0.014 0.074 0.022 0.115 0.022 0.012 0 0.025-0.001 0.037-0.002l-0.001 0c0.007 0.001 0.016 0.001 0.025 0.001 0.068 0 0.131-0.021 0.183-0.058l-0.001 0.001c0.045-0.038 0.077-0.090 0.087-0.15l0-0.002c0.014-0.082 0.020-0.166 0.018-0.249v-0.252h0.583v0.23c0.001 0.018 0.002 0.039 0.002 0.061 0 0.221-0.077 0.425-0.205 0.586l0.001-0.002c-0.134 0.152-0.363 0.228-0.698 0.228s-0.59-0.081-0.733-0.25zM19.291 7.622c-0.148-0.16-0.221-0.392-0.221-0.7v-1.078c0-0.305 0.074-0.535 0.221-0.692s0.394-0.234 0.739-0.234c0.343 0 0.588 0.078 0.736 0.234 0.147 0.156 0.222 0.387 0.222 0.692v1.078c0 0.305-0.075 0.538-0.225 0.699s-0.394 0.241-0.733 0.241-0.591-0.081-0.74-0.24zM20.302 7.364c0.053-0.1 0.077-0.209 0.070-0.319v-1.321c0.001-0.011 0.001-0.023 0.001-0.036 0-0.102-0.026-0.197-0.071-0.28l0.002 0.003c-0.031-0.038-0.071-0.068-0.117-0.085l-0.002-0.001c-0.034-0.013-0.073-0.021-0.114-0.021-0.014 0-0.028 0.001-0.041 0.003l0.002-0c-0.012-0.002-0.026-0.002-0.039-0.002-0.041 0-0.081 0.008-0.117 0.022l0.002-0.001c-0.048 0.018-0.089 0.048-0.119 0.086l-0 0c-0.053 0.097-0.077 0.205-0.070 0.313v1.326c-0.007 0.11 0.017 0.219 0.070 0.319 0.034 0.033 0.076 0.060 0.123 0.079 0.044 0.018 0.096 0.028 0.15 0.028s0.105-0.010 0.153-0.029l-0.003 0.001c0.047-0.018 0.089-0.046 0.123-0.079v-0.006zM21.69 4.951h0.628l0.472 1.989 0.484-1.989h0.611l0.062 2.871h-0.452l-0.048-1.996-0.466 1.996h-0.363l-0.483-2.003-0.045 2.003h-0.457l0.057-2.871zM24.651 4.951h0.978c0.564 0 0.846 0.272 0.846 0.815 0 0.521-0.297 0.781-0.89 0.78h-0.333v1.276h-0.604l0.004-2.872zM25.487 6.178c0.060 0.007 0.12 0.002 0.178-0.014s0.11-0.042 0.154-0.077c0.069-0.097 0.1-0.211 0.087-0.324 0-0.009 0.001-0.020 0.001-0.032 0-0.081-0.011-0.16-0.031-0.235l0.001 0.006c-0.010-0.031-0.025-0.057-0.045-0.079l0 0c-0.021-0.024-0.046-0.043-0.075-0.057l-0.001-0.001c-0.070-0.030-0.152-0.047-0.238-0.047-0.011 0-0.022 0-0.033 0.001l0.002-0h-0.234v0.858h0.235zM27.346 4.951h0.649l0.666 2.871h-0.563l-0.132-0.662h-0.578l-0.135 0.662h-0.571l0.665-2.871zM27.9 6.828l-0.226-1.205-0.226 1.205h0.452zM29.197 4.951h0.423l0.809 1.638v-1.638h0.501v2.871h-0.402l-0.814-1.71v1.71h-0.518l0.001-2.871zM32.105 6.727l-0.673-1.772h0.567l0.411 1.139 0.385-1.139h0.555l-0.665 1.773v1.095h-0.58v-1.095zM17.795 9.078v0.15h-0.493v1.167h-0.207v-1.167h-0.495v-0.15h1.195zM19.34 10.395h-0.16c-0.001 0-0.003 0-0.004 0-0.015 0-0.029-0.005-0.041-0.013l0 0c-0.012-0.007-0.021-0.018-0.026-0.030l-0-0-0.143-0.313h-0.684l-0.142 0.313c-0.005 0.014-0.012 0.026-0.022 0.036l-0 0c-0.012 0.008-0.026 0.013-0.041 0.013-0.001 0-0.003-0-0.004-0h-0.159l0.604-1.317h0.21l0.612 1.312zM18.34 9.906h0.57l-0.242-0.536c-0.015-0.034-0.030-0.075-0.043-0.117l-0.002-0.007c-0.009 0.025-0.016 0.049-0.023 0.070l-0.022 0.055-0.239 0.535zM20.381 10.266c0.038 0.002 0.076 0.002 0.114 0 0.032-0.003 0.065-0.008 0.096-0.016 0.030-0.006 0.059-0.014 0.087-0.024 0.027-0.009 0.053-0.021 0.081-0.032v-0.296h-0.241c-0.001 0-0.001 0-0.002 0-0.012 0-0.022-0.004-0.031-0.011l0 0c-0.004-0.003-0.007-0.006-0.009-0.011l-0-0c-0.002-0.003-0.003-0.008-0.003-0.012 0-0 0-0.001 0-0.001v0-0.101h0.469v0.505c-0.073 0.046-0.158 0.082-0.248 0.106l-0.006 0.001c-0.050 0.013-0.1 0.022-0.151 0.027-0.059 0.005-0.117 0.008-0.176 0.008-0.002 0-0.005 0-0.008 0-0.106 0-0.208-0.018-0.303-0.051l0.006 0.002c-0.093-0.032-0.173-0.079-0.243-0.138l0.001 0.001c-0.065-0.057-0.117-0.126-0.154-0.204l-0.002-0.004c-0.035-0.078-0.056-0.169-0.056-0.265 0-0.003 0-0.006 0-0.009v0c-0-0.002-0-0.005-0-0.008 0-0.097 0.020-0.188 0.056-0.272l-0.002 0.004c0.034-0.078 0.088-0.149 0.156-0.209 0.069-0.059 0.151-0.106 0.242-0.137 0.103-0.034 0.213-0.050 0.324-0.049 0.056 0 0.112 0.004 0.168 0.011 0.049 0.007 0.097 0.018 0.144 0.033 0.043 0.014 0.083 0.031 0.121 0.052 0.037 0.021 0.072 0.043 0.105 0.069l-0.058 0.081c-0.005 0.008-0.011 0.014-0.019 0.018l-0 0c-0.008 0.004-0.018 0.007-0.028 0.007h-0c-0.014-0-0.027-0.004-0.038-0.011l0 0c-0.024-0.012-0.044-0.022-0.063-0.033l0.003 0.002c-0.023-0.013-0.049-0.025-0.077-0.034l-0.004-0.001c-0.031-0.011-0.068-0.021-0.107-0.028l-0.005-0.001c-0.044-0.007-0.094-0.011-0.145-0.011-0.003 0-0.006 0-0.008 0h0c-0.002-0-0.005-0-0.007-0-0.081 0-0.158 0.013-0.231 0.038l0.005-0.001c-0.067 0.023-0.128 0.059-0.178 0.104-0.048 0.045-0.086 0.099-0.111 0.161l-0.001 0.003c-0.026 0.065-0.040 0.141-0.040 0.22s0.015 0.154 0.042 0.224l-0.001-0.004c0.026 0.062 0.068 0.118 0.121 0.166 0.049 0.045 0.11 0.081 0.176 0.104 0.077 0.023 0.158 0.032 0.239 0.026zM22.306 10.245h0.66v0.15h-0.861v-1.317h0.206l-0.005 1.167zM23.652 10.395h-0.206v-1.317h0.206v1.317zM24.42 9.084c0.012 0.006 0.023 0.014 0.032 0.024l0 0 0.883 0.993c-0.001-0.007-0.001-0.015-0.001-0.023s0-0.016 0.001-0.025l-0 0.001v-0.981h0.18v1.323h-0.104c-0.002 0-0.004 0-0.007 0-0.014 0-0.027-0.003-0.039-0.008l0.001 0c-0.013-0.007-0.023-0.015-0.032-0.025l-0-0-0.882-0.992v1.024h-0.173v-1.317h0.107c0.012 0 0.023 0.002 0.034 0.006zM27.035 9.078v0.145h-0.732v0.435h0.593v0.14h-0.593v0.45h0.732v0.145h-0.944v-1.314h0.944zM5.391 0.944l9.172 2.248v7.878l-9.172-2.247v-7.88zM4.802 0.272v8.934l10.347 2.537v-8.933l-10.346-2.538z"></path>
<path  d="M10.348 15.89l-10.348-2.539v-8.933l10.348 2.538v8.934z"></path>
<path  d="M4.974 0.843l9.052 2.22-3.849 3.324-9.054-2.221 3.851-3.324zM4.802 0.273l-4.802 4.146 10.348 2.539 4.801-4.147-10.347-2.538zM10.93 15.388l4.219-3.644-4.22-1.035v4.679z"></path>
</symbol>
<symbol id="icon-clock" viewBox="0 0 16 16">
<path  d="M15.648 7.651c-0.001-4.226-3.428-7.651-7.654-7.651s-7.651 3.428-7.651 7.654c0.001 3.329 2.153 6.276 5.325 7.288 0.030 0.010 0.062 0.014 0.093 0.014 0.060-0 0.119-0.016 0.171-0.047 0.068-0.040 0.118-0.103 0.142-0.178l1.933-6.125c0.528-0.003 0.954-0.433 0.952-0.961s-0.433-0.954-0.961-0.952c-0.142 0.001-0.282 0.033-0.41 0.096l-2.553-2.553c-0.127-0.122-0.329-0.119-0.451 0.008-0.119 0.124-0.119 0.319 0 0.443l2.552 2.555c-0.196 0.4-0.084 0.882 0.268 1.155l-1.841 5.836c-3.639-1.34-5.502-5.377-4.162-9.016s5.377-5.502 9.016-4.162 5.502 5.377 4.162 9.016c-0.655 1.778-2 3.216-3.731 3.987l-0.199-0.937c-0.036-0.172-0.206-0.282-0.378-0.246-0.054 0.012-0.105 0.037-0.146 0.074l-1.918 1.713c-0.132 0.117-0.143 0.319-0.026 0.45 0.038 0.043 0.087 0.074 0.142 0.092l2.449 0.782c0.168 0.054 0.347-0.038 0.401-0.206 0.017-0.053 0.020-0.109 0.008-0.164l-0.196-0.92c2.832-1.194 4.671-3.971 4.664-7.045zM7.996 7.332c0.176 0 0.319 0.143 0.319 0.319s-0.143 0.319-0.319 0.319c-0.176 0-0.319-0.143-0.319-0.319s0.143-0.319 0.319-0.319zM9.046 14.764l1.092-0.974 0.301 1.42-1.393-0.446z"></path>
<path  d="M7.677 1.593v0.638c0 0.176 0.143 0.319 0.319 0.319s0.319-0.143 0.319-0.319v-0.638c0-0.176-0.143-0.319-0.319-0.319s-0.319 0.143-0.319 0.319z"></path>
<path  d="M1.938 7.332c-0.176 0-0.319 0.143-0.319 0.319s0.143 0.319 0.319 0.319h0.638c0.176 0 0.319-0.143 0.319-0.319s-0.143-0.319-0.319-0.319h-0.638z"></path>
<path  d="M14.054 7.969c0.176 0 0.319-0.143 0.319-0.319s-0.143-0.319-0.319-0.319h-0.638c-0.176 0-0.319 0.143-0.319 0.319s0.143 0.319 0.319 0.319h0.638z"></path>
</symbol>
<symbol id="icon-diagram" viewBox="0 0 16 16">
<path fill="#2196f3" style="fill: var(--color2, #2196f3)" d="M7.463 7.482h0.533v2.399h-0.533v-2.399z"></path>
<path fill="#2196f3" style="fill: var(--color2, #2196f3)" d="M9.595 8.548h0.533v1.333h-0.533v-1.333z"></path>
<path fill="#2196f3" style="fill: var(--color2, #2196f3)" d="M5.331 9.348h0.533v0.533h-0.533v-0.533z"></path>
<path fill="#2196f3" style="fill: var(--color2, #2196f3)" d="M3.731 9.081h0.533v0.8h-0.533v-0.8z"></path>
<path fill="#212121" style="fill: var(--color1, #212121)" d="M0.8 14.145h12.793c0.442 0 0.8-0.358 0.8-0.8v-1.066c0-0.442-0.358-0.8-0.8-0.8h-0.267v-6.647l1.514-1.434c0.351 0.173 0.777 0.068 1.007-0.249s0.198-0.754-0.076-1.034-0.71-0.322-1.032-0.099c-0.322 0.223-0.437 0.646-0.271 1.001l-1.141 1.081v-0.615c0-0.442-0.358-0.8-0.8-0.8h-10.661c-0.442 0-0.8 0.358-0.8 0.8v7.996h-0.267c-0.442 0-0.8 0.358-0.8 0.8v1.066c0 0.442 0.358 0.8 0.8 0.8zM15.192 2.418c0.147 0 0.267 0.119 0.267 0.267s-0.119 0.267-0.267 0.267c-0.147 0-0.267-0.119-0.267-0.267s0.119-0.267 0.267-0.267zM1.599 3.484c0-0.147 0.119-0.267 0.267-0.267h10.661c0.147 0 0.267 0.119 0.267 0.267v1.119l-0.533 0.506v-1.093c0-0.147-0.119-0.267-0.267-0.267h-9.595c-0.147 0-0.267 0.119-0.267 0.267v6.663c0 0.147 0.119 0.267 0.267 0.267h9.595c0.147 0 0.267-0.119 0.267-0.267v-4.837l0.533-0.505v6.142h-11.194v-7.996zM3.998 6.949c-0.361-0.001-0.677 0.239-0.773 0.587s0.053 0.716 0.363 0.9c0.31 0.184 0.705 0.138 0.964-0.113l0.926 0.465c0.108 0.054 0.238 0.029 0.318-0.061l1.969-2.216 1.936 1.451c0.104 0.078 0.249 0.069 0.343-0.020l1.683-1.594v4.066h-9.062v-6.13h9.062v1.33l-1.886 1.786-1.952-1.464c-0.111-0.083-0.267-0.067-0.359 0.036l-1.996 2.246-0.746-0.373c0.005-0.032 0.009-0.064 0.010-0.097 0-0.442-0.358-0.8-0.8-0.8zM4.264 7.749c0 0.147-0.119 0.267-0.267 0.267s-0.267-0.119-0.267-0.267c0-0.147 0.119-0.267 0.267-0.267s0.267 0.119 0.267 0.267zM5.864 12.013h2.665v0.267c0 0.147-0.119 0.267-0.267 0.267h-2.132c-0.147 0-0.267-0.119-0.267-0.267v-0.267zM0.533 12.28c0-0.147 0.119-0.267 0.267-0.267h4.531v0.267c0 0.442 0.358 0.8 0.8 0.8h2.132c0.442 0 0.8-0.358 0.8-0.8v-0.267h4.531c0.147 0 0.267 0.119 0.267 0.267v1.066c0 0.147-0.119 0.267-0.267 0.267h-12.793c-0.147 0-0.267-0.119-0.267-0.267v-1.066z"></path>
</symbol>
<symbol id="icon-email" viewBox="0 0 21 16">
<path  d="M19.333 0h-17.333c-1.103 0-2 0.897-2 2v12c0 1.103 0.897 2 2 2h17.333c1.103 0 2-0.897 2-2v-12c0-1.103-0.897-2-2-2zM19.333 1.333c0.091 0 0.177 0.019 0.255 0.052l-8.922 7.733-8.922-7.733c0.079-0.033 0.165-0.052 0.256-0.052h17.333zM19.333 14.667h-17.333c-0.368 0-0.667-0.299-0.667-0.667v-11.206l8.896 7.71c0.126 0.109 0.281 0.163 0.437 0.163s0.311-0.054 0.437-0.163l8.896-7.71v11.206c0 0.368-0.299 0.667-0.667 0.667z"></path>
</symbol>
<symbol id="icon-facebook" viewBox="0 0 16 16">
<path  d="M10.665 2.657h1.461v-2.544c-0.252-0.035-1.119-0.113-2.128-0.113-2.106 0-3.549 1.325-3.549 3.759v2.241h-2.324v2.844h2.324v7.156h2.849v-7.155h2.23l0.354-2.844h-2.585v-1.959c0.001-0.822 0.222-1.385 1.367-1.385z"></path>
</symbol>
<symbol id="icon-instagram" viewBox="0 0 16 16">
<path d="M15.984 4.704c-0.037-0.85-0.175-1.435-0.372-1.941-0.203-0.538-0.516-1.019-0.925-1.419-0.4-0.406-0.885-0.722-1.416-0.922-0.509-0.197-1.091-0.334-1.941-0.372-0.856-0.041-1.128-0.050-3.301-0.050s-2.444 0.009-3.298 0.047c-0.85 0.037-1.435 0.175-1.941 0.372-0.538 0.203-1.019 0.516-1.419 0.925-0.406 0.4-0.722 0.885-0.922 1.416-0.197 0.51-0.334 1.091-0.372 1.941-0.041 0.856-0.050 1.128-0.050 3.301s0.009 2.444 0.047 3.298c0.037 0.85 0.175 1.435 0.372 1.941 0.203 0.538 0.519 1.019 0.925 1.419 0.4 0.406 0.885 0.722 1.416 0.922 0.51 0.197 1.091 0.334 1.941 0.372 0.853 0.038 1.125 0.047 3.298 0.047s2.444-0.009 3.298-0.047c0.85-0.037 1.435-0.175 1.941-0.372 1.075-0.416 1.925-1.266 2.341-2.341 0.197-0.51 0.334-1.091 0.372-1.941 0.037-0.853 0.047-1.125 0.047-3.298s-0.003-2.444-0.041-3.298zM14.544 11.237c-0.034 0.781-0.166 1.203-0.275 1.485-0.269 0.697-0.822 1.25-1.519 1.519-0.281 0.109-0.706 0.241-1.485 0.275-0.844 0.038-1.097 0.047-3.232 0.047s-2.391-0.009-3.232-0.047c-0.781-0.034-1.203-0.166-1.485-0.275-0.347-0.128-0.663-0.331-0.919-0.597-0.266-0.259-0.469-0.572-0.597-0.919-0.109-0.281-0.241-0.706-0.275-1.485-0.038-0.844-0.047-1.097-0.047-3.232s0.009-2.391 0.047-3.232c0.034-0.781 0.166-1.203 0.275-1.485 0.128-0.347 0.331-0.663 0.6-0.919 0.259-0.266 0.572-0.469 0.919-0.597 0.281-0.109 0.706-0.241 1.485-0.275 0.844-0.037 1.097-0.047 3.232-0.047 2.138 0 2.391 0.009 3.232 0.047 0.781 0.034 1.203 0.166 1.485 0.275 0.347 0.128 0.663 0.331 0.919 0.597 0.266 0.259 0.469 0.572 0.597 0.919 0.109 0.281 0.241 0.706 0.275 1.485 0.038 0.844 0.047 1.097 0.047 3.232s-0.009 2.385-0.047 3.229z"></path>
<path d="M8.030 3.891c-2.269 0-4.11 1.841-4.11 4.11s1.841 4.11 4.11 4.11c2.269 0 4.11-1.841 4.11-4.11s-1.841-4.11-4.11-4.11zM8.030 10.668c-1.472 0-2.666-1.194-2.666-2.666s1.194-2.666 2.666-2.666c1.472 0 2.666 1.194 2.666 2.666s-1.194 2.666-2.666 2.666z"></path>
<path d="M13.262 3.729c0 0.53-0.43 0.96-0.96 0.96s-0.96-0.43-0.96-0.96c0-0.53 0.43-0.96 0.96-0.96s0.96 0.43 0.96 0.96z"></path>
</symbol>
<symbol id="icon-linkedin" viewBox="0 0 16 16">
<path d="M15.996 16v-0.001h0.004v-5.868c0-2.871-0.618-5.082-3.974-5.082-1.613 0-2.696 0.885-3.138 1.725h-0.047v-1.457h-3.182v10.682h3.313v-5.289c0-1.393 0.264-2.739 1.989-2.739 1.699 0 1.725 1.589 1.725 2.829v5.201h3.31z"></path>
<path d="M0.264 5.318h3.317v10.682h-3.317v-10.682z"></path>
<path d="M1.921 0c-1.061 0-1.921 0.861-1.921 1.921s0.861 1.939 1.921 1.939c1.061 0 1.921-0.879 1.921-1.939s-0.861-1.921-1.921-1.921v0z"></path>
</symbol>
<symbol id="icon-smartphone" viewBox="0 0 10 16">
<path  d="M8.5 0h-7c-0.827 0-1.5 0.673-1.5 1.5v13c0 0.827 0.673 1.5 1.5 1.5h7c0.827 0 1.5-0.673 1.5-1.5v-13c0-0.827-0.673-1.5-1.5-1.5zM1.5 1h7c0.276 0 0.5 0.224 0.5 0.5v10.5h-8v-10.5c0-0.276 0.224-0.5 0.5-0.5zM8.5 15h-7c-0.276 0-0.5-0.224-0.5-0.5v-1.5h8v1.5c0 0.276-0.224 0.5-0.5 0.5z"></path>
<path  d="M2.354 13.739c0.195 0.182 0.195 0.478 0 0.66s-0.512 0.182-0.707 0c-0.195-0.182-0.195-0.478 0-0.66s0.512-0.182 0.707 0z"></path>
</symbol>
<symbol id="icon-twitter" viewBox="0 0 16 16">
<path  d="M16 3.039c-0.595 0.261-1.229 0.434-1.89 0.518 0.68-0.406 1.199-1.044 1.443-1.813-0.634 0.378-1.334 0.645-2.080 0.794-0.602-0.641-1.46-1.038-2.396-1.038-1.816 0-3.278 1.474-3.278 3.281 0 0.26 0.022 0.51 0.076 0.748-2.727-0.133-5.14-1.44-6.761-3.431-0.283 0.491-0.449 1.053-0.449 1.658 0 1.136 0.585 2.143 1.457 2.726-0.527-0.010-1.044-0.163-1.482-0.404 0 0.010 0 0.023 0 0.036 0 1.594 1.137 2.918 2.628 3.223-0.267 0.073-0.558 0.108-0.86 0.108-0.21 0-0.422-0.012-0.621-0.056 0.425 1.299 1.631 2.254 3.065 2.285-1.116 0.873-2.533 1.399-4.067 1.399-0.269 0-0.527-0.012-0.785-0.045 1.453 0.937 3.175 1.472 5.032 1.472 6.036 0 9.336-5 9.336-9.334 0-0.145-0.005-0.285-0.012-0.424 0.651-0.462 1.198-1.039 1.644-1.703z"></path>
</symbol>
<symbol id="close" xmlns="http://www.w3.org/2000/svg"><path d="M15 4.108 13.892 3 9.5 7.392 5.108 3 4 4.108 8.392 8.5 4 12.892 5.108 14 9.5 9.608 13.892 14 15 12.892 10.608 8.5 15 4.108Z"/></symbol>
<symbol id="icon-send" xmlns="http://www.w3.org/2000/svg"><path d="M24 0 0 13.5l7.67 2.84L19.5 5.25l-8.998 12.14.007.002-.009-.002V24l4.301-5.018L20.251 21 24 0Z" fill="#fff"/></symbol>
<symbol id="icon-check-form-modal" xmlns="http://www.w3.org/2000/svg"><path d="m3.957 7.752-.069-.066-.069.065-.888.842-.076.072.076.073 3.496 3.334.069.066.069-.066 7.504-7.158.076-.073-.076-.072-.882-.841-.069-.066-.069.066-6.553 6.246-2.539-2.422Z"  stroke-width=".2"/></symbol>
<symbol id="icon-email-form-modal" xmlns="http://www.w3.org/2000/svg"><path d="M15 3H3c-.825 0-1.492.675-1.492 1.5l-.008 9c0 .825.675 1.5 1.5 1.5h12c.825 0 1.5-.675 1.5-1.5v-9c0-.825-.675-1.5-1.5-1.5Zm-.3 3.188L9.398 9.502a.759.759 0 0 1-.796 0L3.3 6.188a.637.637 0 1 1 .675-1.08L9 8.25l5.025-3.143a.637.637 0 1 1 .675 1.08Z"/></symbol>
<symbol id="icon-person-form-modal" xmlns="http://www.w3.org/2000/svg"><path d="M9 9a3 3 0 1 0 0-6 3 3 0 1 0 0 6Zm0 1.5c-2.003 0-6 1.005-6 3v.75c0 .412.337.75.75.75h10.5c.412 0 .75-.338.75-.75v-.75c0-1.995-3.998-3-6-3Z" /></symbol>
<symbol id="icon-phone-form-modal" xmlns="http://www.w3.org/2000/svg"><path d="m13.996 11.123-1.838-.21a1.44 1.44 0 0 0-1.187.412l-1.332 1.332a10.888 10.888 0 0 1-4.769-4.77L6.21 6.55a1.44 1.44 0 0 0 .412-1.187l-.21-1.824a1.448 1.448 0 0 0-1.44-1.28H3.72c-.818 0-1.498.68-1.448 1.497.384 6.18 5.327 11.116 11.5 11.5.817.05 1.498-.63 1.498-1.448v-1.252a1.434 1.434 0 0 0-1.274-1.432Z" /></symbol>
</defs>
</svg>
